<?xml version="1.0" encoding="UTF-8" standalone="no"?>
<svg width="388px" height="224px" viewBox="0 0 388 224" version="1.1" xmlns="http://www.w3.org/2000/svg" xmlns:xlink="http://www.w3.org/1999/xlink" xmlns:sketch="http://www.bohemiancoding.com/sketch/ns">
    <title>logo-big</title>
    <description>Created with Sketch (http://www.bohemiancoding.com/sketch)</description>
    <defs></defs>
    <g id="Page-1" stroke="none" stroke-width="1" fill="none" fill-rule="evenodd" sketch:type="MSPage">
        <g id="Still-+-Rectangle-1-+-Imported-Layers" sketch:type="MSLayerGroup" transform="translate(-729.000000, -328.000000)" fill="#12151D">
            <g id="Imported-Layers" transform="translate(729.000000, 328.000000)" sketch:type="MSShapeGroup">
                <path d="M297.108369,92.603352 C294.50398,92.2704321 293.0569,91.7755031 293.0569,90.7838648 C293.0569,90.2960571 291.214039,88.3377049 291.790043,87.6807668 L289.0178,73.9491576 L283.524553,55.2931828 L282.077474,52.1562588 L278.888246,43.4113262 L276.276789,30.5289297 C275.421616,26.4128296 272.525691,21.2944092 267.611983,15.510149 L256.330419,10.2279392 C248.220415,11.3798063 243.90038,12.8717146 243.024004,15.3463596 L238.400065,17.6589954 L235.512974,19.8078419 L224.515879,25.9107793 L211.781935,37.7926359 L210.057455,38.7878348 L206.290455,39.9414823 L204.269138,42.9128366 L192.989342,49.5196046 C192.989342,51.6648904 186.337018,55.2931828 173.898144,61.5652507 L160.015725,64.2090261 L158.561578,64.2090261 C153.649636,64.2090261 150.186541,63.5538683 147.576851,61.7326008 L139.480982,58.5938964 L136.009052,53.9775263 C126.754106,41.5918391 123.85818,33.1744854 118.078698,31.6932591 L116.921388,33.505625 C100.436347,66.5234423 94.6427291,83.5201586 90.6053958,83.5201586 L90.3173934,83.5201586 C89.1441815,83.3599298 88.5787781,83.0305706 88.5787781,82.699431 C88.5787781,81.2110834 97.8266567,60.4116032 114.313465,20.3027708 C111.424607,18.1557048 109.977528,16.3415585 109.977528,14.5274123 C109.977528,12.8717146 112.868153,10.5608591 118.65647,7.42393497 L119.522243,7.42393497 C124.444786,7.42393497 128.195884,8.57758242 130.508737,10.8919986 L130.508737,10.5608591 C131.383346,10.5608591 136.592124,20.9614893 148.727093,41.4316102 C148.727093,42.0867681 151.631853,43.9080356 155.67272,47.5398886 C155.962489,48.526186 156.538494,49.6905154 157.994408,51.000831 C160.584662,53.3152472 164.061893,54.6309037 169.270671,55.2931828 C184.893472,51.1681811 199.062127,42.7454865 213.237849,30.035781 L225.093651,22.9429856 L228.85535,19.6369311 C229.719357,18.8197642 230.883734,16.8364875 234.631298,14.8567715 C238.974303,12.540575 242.159997,11.0575684 243.90038,10.2279392 L250.830104,6.76699684 L255.176643,3.29893321 L262.986276,0.491368358 C264.70899,0.160228812 266.163137,0 267.611983,0 C274.255472,0 279.474852,3.29893321 286.130709,9.73301019 L286.996483,16.505348 L289.0178,19.1437824 L289.883574,22.9429856 L293.344903,46.3826805 L292.758297,51.6648904 L293.344903,56.4486106 L294.219511,63.057159 L294.219511,67.0130303 L297.394604,77.2712349 L299.421222,86.6606433 L299.421222,90.4562859 L297.108369,92.603352" id="Fill-1"></path>
                <path d="M3.84417438,168.938547 L0,168.938547 L0,142.690326 L3.84417438,142.690326 L3.84417438,146.584008 C3.88661237,146.5529 3.90783136,146.516607 3.9485011,146.485499 C6.55666909,143.92946 9.72183567,142.659218 13.4386961,142.659218 C17.144947,142.659218 20.3030406,143.92946 22.9341958,146.485499 C23.7122256,147.27184 24.3912334,148.094473 24.948232,148.958584 C25.4946211,148.094473 26.1683241,147.27184 26.9711094,146.485499 C29.5828139,143.92946 32.7497487,142.659218 36.4666091,142.659218 C40.1781648,142.659218 43.3415631,143.93983 45.9621089,146.499325 C48.5861911,149.055364 49.903537,152.154064 49.903537,155.785057 L49.903537,168.938547 L46.0664356,168.938547 L46.0664356,155.785057 C46.0664356,153.203095 45.1239586,150.996156 43.2549189,149.164242 C41.3717332,147.325415 39.1154469,146.414642 36.4666091,146.414642 C33.8248444,146.414642 31.5650216,147.325415 29.6889089,149.164242 C27.8057232,150.996156 26.8773922,153.203095 26.8773922,155.785057 L26.8773922,168.938547 L23.0332178,168.938547 L23.0332178,155.785057 C23.0332178,153.203095 22.0960456,150.996156 20.2217011,149.164242 C18.3455884,147.325415 16.0804608,146.414642 13.4386961,146.414642 C10.7969314,146.414642 8.53710852,147.325415 6.65392281,149.164242 C4.78665136,150.996156 3.84417438,153.203095 3.84417438,155.785057 L3.84417438,168.938547" id="Fill-2"></path>
                <path d="M81.0932476,168.938547 L77.3482655,168.938547 L77.3482655,164.984882 C77.3189539,165.016027 77.2741245,165.054093 77.2413645,165.090429 C74.6860867,167.656418 71.6066493,168.938547 67.9875344,168.938547 C64.3563501,168.938547 61.2820853,167.656418 58.7216348,165.090429 C56.1698054,162.512327 54.8938907,159.415145 54.8938907,155.795422 C54.8938907,152.163587 56.1698054,149.059484 58.7216348,146.490034 C61.2820853,143.930966 64.3563501,142.659218 67.9875344,142.659218 C71.6066493,142.659218 74.6860867,143.930966 77.2413645,146.477922 C77.2741245,146.53156 77.3189539,146.569626 77.3482655,146.607692 L77.3482655,142.659218 L81.0932476,142.659218 L81.0932476,168.938547 L81.0932476,168.938547 Z M67.9909832,146.413408 C65.4205258,146.413408 63.2121046,147.328768 61.3829595,149.15949 C59.5486425,150.998863 58.6366559,153.215455 58.6366559,155.797152 C58.6366559,158.385771 59.5486425,160.598902 61.3829595,162.440006 C63.2121046,164.270727 65.4205258,165.184358 67.9909832,165.184358 C70.5717845,165.184358 72.7802056,164.270727 74.6041787,162.440006 C76.4264279,160.598902 77.3504823,158.385771 77.3504823,155.797152 C77.3504823,153.215455 76.4264279,150.998863 74.6041787,149.15949 C72.7802056,147.328768 70.5717845,146.413408 67.9909832,146.413408 L67.9909832,146.413408 Z" id="Fill-3"></path>
                <path d="M89.829386,155.721021 L89.829386,168.938547 L86.0836013,168.938547 L86.0836013,142.659218 L89.829386,142.659218 L89.829386,146.581738 C89.8638934,146.547133 89.8914994,146.515988 89.9242815,146.477922 C92.4709319,143.930966 95.5593495,142.659218 99.1895342,142.659218 L101.054662,142.659218 L101.054662,146.412172 L99.1895342,146.412172 C96.6066509,146.412172 94.4033497,147.327484 92.5761797,149.158109 C90.7628127,150.980083 89.8414636,153.163683 89.829386,155.721021" id="Fill-4"></path>
                <path d="M109.784337,141.413972 L109.784337,133.899441 L113.535714,133.899441 L113.535714,141.413972 L117.273312,141.413972 L117.273312,145.166048 L113.535714,145.166048 L113.535714,160.18127 C113.535714,161.210539 113.895694,162.101419 114.634602,162.841801 C115.363175,163.573534 116.232985,163.931615 117.273312,163.931615 L117.273312,167.687151 C115.202993,167.687151 113.449594,166.958878 111.983836,165.488493 C110.521522,164.018109 109.784337,162.250187 109.784337,160.18127 L109.784337,145.166048 L106.045016,145.166048 L106.045016,141.413972 L109.784337,141.413972" id="Fill-5"></path>
                <path d="M122.263666,142.659218 L126.006431,142.659218 L126.006431,168.938547 L122.263666,168.938547 L122.263666,142.659218 Z" id="Fill-6"></path>
                <path d="M127.254019,177.576938 C129.748621,177.576938 130.994197,176.280909 130.994197,173.697788 L130.994197,142.659218 L134.73955,142.659218 L134.73955,173.697788 C134.73955,178.869393 132.246673,181.452514 127.254019,181.452514 L127.254019,177.576938" id="Fill-7"></path>
                <path d="M143.469713,168.938547 L139.729904,168.938547 L139.729904,142.690326 L143.469713,142.690326 L143.469713,146.584008 C143.502473,146.5529 143.536957,146.516607 143.569717,146.485499 C146.121547,143.92946 149.19926,142.659218 152.823547,142.659218 C156.444386,142.659218 159.528996,143.93983 162.089447,146.499325 C164.651622,149.055364 165.92926,152.154064 165.92926,155.785057 L165.92926,168.938547 L162.186003,168.938547 L162.186003,155.785057 C162.186003,153.203095 161.261826,150.996156 159.439337,149.164242 C157.6134,147.325415 155.413309,146.414642 152.823547,146.414642 C150.252752,146.414642 148.049212,147.325415 146.216378,149.164242 C144.38182,150.996156 143.469713,153.203095 143.469713,155.785057 L143.469713,168.938547" id="Fill-8"></path>
                <path d="M200.872501,164.157814 L210.351009,142.659218 L214.585209,142.659218 L202.97166,168.938547 L198.726695,168.938547 L187.138264,142.659218 L191.367081,142.659218 L200.872501,164.157814" id="Fill-9"></path>
                <path d="M240.784566,168.938547 L237.041062,168.938547 L237.041062,164.984882 C237.011748,165.016027 236.978986,165.054093 236.941051,165.090429 C234.385605,167.656418 231.295619,168.938547 227.681439,168.938547 C224.055188,168.938547 220.973824,167.656418 218.413205,165.090429 C215.861208,162.512327 214.585209,159.415145 214.585209,155.795422 C214.585209,152.163587 215.861208,149.059484 218.413205,146.490034 C220.973824,143.930966 224.055188,142.659218 227.681439,142.659218 C231.295619,142.659218 234.385605,143.930966 236.941051,146.477922 C236.978986,146.53156 237.011748,146.569626 237.041062,146.607692 L237.041062,142.659218 L240.784566,142.659218 L240.784566,168.938547 L240.784566,168.938547 Z M227.684025,146.413408 C225.108396,146.413408 222.906871,147.328768 221.076002,149.15949 C219.239961,150.998863 218.327974,153.215455 218.327974,155.797152 C218.327974,158.385771 219.239961,160.598902 221.076002,162.440006 C222.906871,164.270727 225.108396,165.184358 227.684025,165.184358 C230.266551,165.184358 232.471524,164.270727 234.297221,162.440006 C236.129814,160.598902 237.041801,158.385771 237.041801,155.797152 C237.041801,153.215455 236.129814,150.998863 234.297221,149.15949 C232.471524,147.328768 230.266551,146.413408 227.684025,146.413408 L227.684025,146.413408 Z" id="Fill-10"></path>
                <path d="M250.764042,168.938547 L247.022508,168.938547 L247.022508,142.690326 L250.764042,142.690326 L250.764042,146.584008 C250.798526,146.5529 250.83301,146.516607 250.860597,146.485499 C253.402082,143.92946 256.488416,142.659218 260.123049,142.659218 C263.733542,142.659218 266.814704,143.93983 269.369982,146.499325 C271.94595,149.055364 273.221865,152.154064 273.221865,155.785057 L273.221865,168.938547 L269.473434,168.938547 L269.473434,155.785057 C269.473434,153.203095 268.557879,150.996156 266.733666,149.164242 C264.900832,147.325415 262.695569,146.414642 260.123049,146.414642 C257.541908,146.414642 255.333196,147.325415 253.505534,149.164242 C251.676148,150.996156 250.764042,153.203095 250.764042,155.785057 L250.764042,168.938547" id="Fill-11"></path>
                <path d="M303.160045,168.938547 L299.421222,168.938547 L299.421222,130.145251 L303.160045,130.145251 L303.160045,145.817722 C303.192812,145.785547 303.227303,145.748011 303.254896,145.715836 C305.800331,143.072179 308.890723,141.758394 312.515727,141.758394 C316.132107,141.758394 319.220775,143.082904 321.774833,145.730136 C324.340963,148.373793 325.620579,151.578713 325.620579,155.334171 L325.620579,168.938547 L321.874857,168.938547 L321.874857,155.334171 C321.874857,152.663702 320.96602,150.381113 319.129374,148.486403 C317.304801,146.584543 315.099102,145.64255 312.515727,145.64255 C309.944423,145.64255 307.737,146.584543 305.905528,148.486403 C304.072332,150.381113 303.160045,152.663702 303.160045,155.334171 L303.160045,168.938547" id="Fill-12"></path>
                <path d="M351.64939,153.921788 C351.307142,152.125596 350.452745,150.536005 349.079675,149.158109 C347.239944,147.327484 345.04675,146.412172 342.463885,146.412172 C339.877571,146.412172 337.68955,147.327484 335.85844,149.158109 C334.482786,150.536005 333.624838,152.125596 333.280971,153.921788 L351.64939,153.921788 Z M333.281627,157.675978 C333.625929,159.472778 334.48366,161.05961 335.85844,162.437926 C337.68955,164.268551 339.877571,165.182133 342.463885,165.182133 C345.04675,165.182133 347.239944,164.268551 349.079675,162.437926 L349.105538,162.405051 L351.764268,165.03333 C351.753923,165.054093 351.738405,165.071396 351.72806,165.090429 C349.164161,167.656418 346.076103,168.938547 342.463885,168.938547 C338.841321,168.938547 335.742918,167.656418 333.197985,165.090429 C330.64788,162.512327 329.363344,159.415145 329.363344,155.795422 C329.363344,152.163587 330.64788,149.059484 333.197985,146.490034 C335.742918,143.930966 338.841321,142.659218 342.463885,142.659218 C346.076103,142.659218 349.164161,143.930966 351.72806,146.490034 C354.286786,149.059484 355.562701,152.163587 355.562701,155.795422 C355.562701,156.430431 355.526493,157.058519 355.445455,157.672764 L354.315113,157.672764 L354.315113,157.675978 L333.281627,157.675978 Z" id="Fill-13"></path>
                <path d="M366.79617,153.91981 C369.291347,154.608457 371.164023,155.511658 372.405576,156.638063 C373.655751,157.767929 374.276527,159.370158 374.276527,161.430909 C374.276527,163.500311 373.541942,165.268646 372.083117,166.739375 C370.613946,168.210104 368.853354,168.938547 366.79617,168.938547 C364.730364,168.938547 362.968048,168.210104 361.500601,166.739375 L361.474735,166.709961 L364.118209,164.062649 L364.152696,164.092063 C364.87866,164.823967 365.761542,165.182133 366.79617,165.182133 C367.818727,165.182133 368.705058,164.823967 369.439643,164.092063 C370.172505,163.351508 370.539797,162.460419 370.539797,161.430909 C370.539797,160.396208 370.220787,159.641811 369.596562,159.165987 C368.980958,158.691893 368.041172,158.191845 366.79617,157.672764 C364.29582,156.991038 362.426593,156.082647 361.181591,154.956242 C359.926243,153.831567 359.305466,152.232798 359.305466,150.166856 C359.305466,148.093994 360.034879,146.322198 361.500601,144.85493 C362.968048,143.38074 364.730364,142.659218 366.79617,142.659218 C368.853354,142.659218 370.613946,143.38074 372.083117,144.85493 L372.107258,144.882614 L369.456887,147.529926 L369.439643,147.509163 C368.705058,146.777259 367.818727,146.412172 366.79617,146.412172 C365.761542,146.412172 364.87866,146.777259 364.152696,147.509163 C363.416386,148.247988 363.054267,149.128695 363.054267,150.166856 C363.054267,151.194636 363.362931,151.949034 363.985432,152.435239 C364.606208,152.900682 365.544271,153.40246 366.79617,153.91981" id="Fill-14"></path>
                <path d="M380.513895,141.413972 L380.513895,133.899441 L384.257809,133.899441 L384.257809,141.413972 L388,141.413972 L388,145.166048 L384.257809,145.166048 L384.257809,160.18127 C384.257809,161.210539 384.618066,162.101419 385.357541,162.841801 C386.081502,163.573534 386.964046,163.931615 388,163.931615 L388,167.687151 C385.929815,167.687151 384.176795,166.958878 382.70474,165.488493 C381.246475,164.018109 380.513895,162.250187 380.513895,160.18127 L380.513895,145.166048 L376.771704,145.166048 L376.771704,141.413972 L380.513895,141.413972" id="Fill-15"></path>
                <path d="M122.263666,133.899441 L134.73955,133.899441 L134.73955,137.653631 L122.263666,137.653631 L122.263666,133.899441 Z" id="Fill-16"></path>
                <path d="M109.075403,216.992907 L109.075403,224 L107.292605,224 L107.292605,206.480447 L109.075403,206.480447 L109.075403,214.515854 L117.250726,206.480447 L119.768489,206.480447 L110.860052,215.238403 L119.768489,224 L117.250726,224 L109.599319,216.47784 L109.075403,216.992907" id="Fill-17"></path>
                <path d="M132.958074,206.480447 L134.73955,206.480447 L134.73955,217.868338 C134.73955,219.566421 134.132144,221.01152 132.917334,222.205456 C131.700671,223.403032 130.230306,224 128.504385,224 C126.782169,224 125.313655,223.403032 124.091437,222.205456 C122.872923,221.01152 122.263666,219.566421 122.263666,217.868338 L122.263666,206.480447 L124.046993,206.480447 L124.046993,217.868338 C124.046993,219.076835 124.482177,220.108788 125.354396,220.9642 C126.226615,221.819611 127.272908,222.249137 128.504385,222.249137 C129.730307,222.249137 130.780304,221.819611 131.650671,220.9642 C132.522891,220.108788 132.958074,219.076835 132.958074,217.868338 L132.958074,206.480447" id="Fill-18"></path>
                <path d="M139.017789,209.820191 L139.017789,224 L137.234727,224 L137.234727,206.480447 L139.017789,206.480447 L147.9294,220.660256 L147.9294,206.480447 L149.710611,206.480447 L149.710611,224 L147.9294,224 L139.017789,209.820191" id="Fill-19"></path>
                <path d="M157.192371,214.364792 C158.710027,214.692396 159.920381,215.240223 160.827204,216.022834 C161.734026,216.801804 162.186495,217.853778 162.186495,219.175116 C162.186495,220.509194 161.698206,221.644889 160.723513,222.585841 C159.746934,223.530434 158.572401,224 157.203683,224 C155.823653,224 154.645349,223.530434 153.670655,222.585841 C153.653688,222.571281 153.642376,222.560361 153.634835,222.554901 L154.91683,221.313644 C154.924371,221.322744 154.933798,221.333665 154.95265,221.350045 C155.574795,221.948833 156.323254,222.249137 157.203683,222.249137 C158.07657,222.249137 158.819373,221.948833 159.441518,221.350045 C160.061777,220.749437 160.372849,220.025067 160.372849,219.175116 C160.372849,218.337905 160.071204,217.680876 159.466027,217.21495 C158.86085,216.747204 158.102964,216.381379 157.192371,216.117475 C155.682256,215.789871 154.473788,215.234763 153.56885,214.457613 C152.660142,213.680463 152.205788,212.628489 152.205788,211.303511 C152.205788,209.973073 152.695962,208.835558 153.670655,207.892786 C154.645349,206.953653 155.819882,206.480447 157.192371,206.480447 C158.570515,206.480447 159.746934,206.953653 160.723513,207.892786 C160.742366,207.905526 160.751792,207.920086 160.759333,207.929186 L159.479224,209.166803 C159.471682,209.157703 159.4566,209.148602 159.441518,209.132222 C158.819373,208.533434 158.070914,208.23495 157.192371,208.23495 C156.319483,208.23495 155.574795,208.533434 154.95265,209.132222 C154.330506,209.73283 154.021319,210.45538 154.021319,211.303511 C154.021319,212.142542 154.322965,212.799571 154.930027,213.267317 C155.535204,213.733243 156.287433,214.097248 157.192371,214.364792" id="Fill-20"></path>
                <path d="M175.909968,206.480447 L175.909968,208.23495 L170.566334,208.23495 L170.566334,224 L168.783272,224 L168.783272,208.23495 L163.434084,208.23495 L163.434084,206.480447 L175.909968,206.480447" id="Fill-21"></path>
                <path d="M182.14131,214.364792 C183.657367,214.692396 184.869835,215.240223 185.77683,216.022834 C186.685709,216.801804 187.138264,217.853778 187.138264,219.175116 C187.138264,220.509194 186.651768,221.644889 185.67689,222.585841 C184.700128,223.530434 183.525372,224 182.15451,224 C180.776105,224 179.599464,223.530434 178.618929,222.585841 C178.60573,222.571281 178.590645,222.560361 178.583102,222.554901 L179.865339,221.313644 C179.870996,221.322744 179.886081,221.333665 179.904938,221.350045 C180.523429,221.948833 181.2758,222.249137 182.15451,222.249137 C183.023791,222.249137 183.772391,221.948833 184.392768,221.350045 C185.013144,220.749437 185.32239,220.025067 185.32239,219.175116 C185.32239,218.337905 185.022572,217.680876 184.417281,217.21495 C183.81199,216.747204 183.053961,216.381379 182.14131,216.117475 C180.634682,215.789871 179.425985,215.234763 178.517105,214.457613 C177.610111,213.680463 177.157556,212.628489 177.157556,211.303511 C177.157556,209.973073 177.644052,208.835558 178.618929,207.892786 C179.599464,206.953653 180.770448,206.480447 182.14131,206.480447 C183.521601,206.480447 184.700128,206.953653 185.67689,207.892786 C185.69009,207.905526 185.701404,207.920086 185.710832,207.929186 L184.426709,209.166803 C184.419167,209.157703 184.407853,209.148602 184.392768,209.132222 C183.772391,208.533434 183.02002,208.23495 182.14131,208.23495 C181.272029,208.23495 180.523429,208.533434 179.904938,209.132222 C179.282676,209.73283 178.971545,210.45538 178.971545,211.303511 C178.971545,212.142542 179.275133,212.799571 179.878539,213.267317 C180.48383,213.733243 181.238087,214.097248 182.14131,214.364792" id="Fill-22"></path>
                <path d="M198.399343,208.23495 C196.45784,208.23495 194.805924,208.915639 193.436309,210.284298 C192.070336,211.649316 191.387349,213.301898 191.387349,215.238403 C191.387349,217.178549 192.070336,218.831131 193.436309,220.197969 C194.805924,221.564808 196.45784,222.249137 198.399343,222.249137 C200.337203,222.249137 201.994583,221.562988 203.364198,220.192509 L204.604502,221.431946 C202.892482,223.142769 200.823489,224 198.399343,224 C195.975197,224 193.908025,223.146409 192.197827,221.437406 C190.485807,219.726583 189.633441,217.660856 189.633441,215.238403 C189.633441,212.817771 190.485807,210.752044 192.197827,209.044861 C193.908025,207.337678 195.975197,206.480447 198.399343,206.480447 C200.823489,206.480447 202.88884,207.334038 204.591753,209.039401 L203.364198,210.277017 C201.994583,208.913819 200.337203,208.23495 198.399343,208.23495" id="Fill-23"></path>
                <path d="M207.099678,206.480447 L208.882741,206.480447 L208.882741,214.364792 L217.7925,214.364792 L217.7925,206.480447 L219.575563,206.480447 L219.575563,224 L217.7925,224 L217.7925,216.117475 L208.882741,216.117475 L208.882741,224 L207.099678,224 L207.099678,206.480447" id="Fill-24"></path>
                <path d="M222.07074,206.480447 L223.272167,206.480447 L223.272167,224 L222.07074,224 L222.07074,206.480447 Z" id="Fill-25"></path>
                <path d="M228.940666,222.249137 L237.041801,222.249137 L237.041801,224 L227.061093,224 L227.061093,206.480447 L228.940666,206.480447 L228.940666,222.249137" id="Fill-26"></path>
                <path d="M243.109449,206.480447 C245.571307,206.480447 247.672217,207.337678 249.406624,209.044861 C251.148435,210.752044 252.012862,212.817771 252.012862,215.238403 C252.012862,217.660856 251.148435,219.726583 249.406624,221.437406 C247.672217,223.146409 245.571307,224 243.109449,224 L239.536977,224 L239.536977,206.480447 L243.109449,206.480447 L243.109449,206.480447 Z M242.546765,221.497207 C244.473774,221.497207 246.118252,220.825028 247.476576,219.482458 C248.834901,218.139888 249.517685,216.516648 249.517685,214.61095 C249.517685,212.708827 248.834901,211.085587 247.476576,209.744804 C246.118252,208.400447 244.473774,207.731844 242.546765,207.731844 L240.784566,207.731844 L240.784566,221.497207 L242.546765,221.497207 L242.546765,221.497207 Z" id="Fill-27"></path>
                <path d="M266.983923,206.480447 L266.983923,208.23495 L256.287926,208.23495 L256.287926,214.364792 L263.422295,214.364792 L263.422295,216.117475 L256.287926,216.117475 L256.287926,222.249137 L266.983923,222.249137 L266.983923,224 L254.508039,224 L254.508039,206.480447 L266.983923,206.480447" id="Fill-28"></path>
                <path d="M271.262162,216.117475 L271.262162,224 L269.4791,224 L269.4791,206.480447 L277.063134,206.480447 C278.405523,206.480447 279.559051,206.950013 280.520017,207.889146 C281.475427,208.826458 281.954984,209.962153 281.954984,211.292591 C281.954984,212.624849 281.475427,213.762364 280.520017,214.703316 C279.559051,215.647909 278.405523,216.117475 277.063134,216.117475 L273.933979,216.117475 L281.954984,224 L279.438699,224 L271.417694,216.117475 L271.262162,216.117475 L271.262162,216.117475 Z M270.726688,207.731844 L270.726688,213.988827 L276.411471,213.988827 C277.247949,213.988827 277.966485,213.684152 278.565266,213.069229 C279.162231,212.459879 279.459807,211.718627 279.459807,210.852904 C279.459807,209.99647 279.162231,209.260792 278.565266,208.647726 C277.966485,208.036519 277.247949,207.731844 276.411471,207.731844 L270.726688,207.731844 L270.726688,207.731844 Z" id="Fill-29"></path>
            </g>
        </g>
    </g>
</svg>