<?xml version="1.0" encoding="UTF-8" standalone="no"?>
<svg width="52px" height="22px" viewBox="0 0 52 22" version="1.1" xmlns="http://www.w3.org/2000/svg" xmlns:xlink="http://www.w3.org/1999/xlink" xmlns:sketch="http://www.bohemiancoding.com/sketch/ns">
    <title>logo-small</title>
    <description>Created with Sketch (http://www.bohemiancoding.com/sketch)</description>
    <defs></defs>
    <g id="Page-1" stroke="none" stroke-width="1" fill="none" fill-rule="evenodd" sketch:type="MSPage">
        <g id="Schilderijen-+-Over-mij-+-Contact" sketch:type="MSLayerGroup" fill="#FFFFFF">
            <g id="Group" sketch:type="MSShapeGroup">
                <path d="M50.4303696,21.5677401 C50.4303696,21.4518504 49.9758652,20.9866 50.1179251,20.8305297 L49.4342077,17.5682784 L48.07941,13.1361338 L47.7225174,12.3908872 L46.9359591,10.3133327 L46.2918964,7.25283091 C46.0809855,6.27495915 45.3667644,5.05896376 44.1548982,3.68478324 L41.37253,2.429876 C39.3723624,2.70352783 38.3069136,3.05796405 38.0907735,3.64587138 L36.9503729,4.19528982 L36.2383307,4.7057964 L33.5261208,6.15568586 L30.3855527,8.97848697 L29.9602447,9.21491877 L29.0311908,9.48899356 L28.5326741,10.1949053 L25.7503059,11.764491 C25.7503059,12.2741517 24.1100813,13.1361338 21.0422861,14.626204 L17.6184698,15.254292 L17.2598341,15.254292 C16.0484036,15.254292 15.1943015,15.0986446 14.5506746,14.6659617 L12.5539931,13.9202922 L11.6977122,12.8235701 C9.41516802,9.88107277 8.70094695,7.88134192 7.27555518,7.52944343 L6.99012822,7.96001154 C2.92442806,15.8041334 1.49555016,19.842084 0.499824017,19.842084 C0.139445236,19.8040181 0,19.7257714 0,19.6471018 C0,19.2935115 2.28080114,14.3521292 6.34693707,4.82337787 C5.63445906,4.31329424 5.27756641,3.88230318 5.27756641,3.45173508 C5.27756641,3.05796405 5.99048018,2.50896857 7.41805078,1.763722 L7.6315763,1.763722 C8.84562139,1.763722 9.77075337,2.03779679 10.3411715,2.58806114 L10.3411715,2.50896857 C10.5568759,2.50896857 11.8415151,4.97987119 14.8343585,9.84300682 C14.8343585,9.99865423 15.5507584,10.4313371 16.5473561,11.2941651 C16.6188218,11.5284822 16.7608816,11.8050947 17.1199531,12.1163895 C17.7587866,12.6662309 18.6163748,12.9787946 19.901014,13.1361338 C23.7536244,12.1561473 27.2484706,10.1551476 30.7441884,7.1356724 L33.6686164,5.45104297 L34.596363,4.66519273 C34.8094528,4.47105643 35.0966228,3.99988465 36.0208833,3.52955878 C37.091997,2.97929443 37.8776837,2.62697299 38.3069136,2.429876 L40.0159893,1.60765164 L41.0879745,0.783735461 L43.0140618,0.116735557 C43.438934,0.0380659425 43.7975698,0 44.1548982,0 C45.7933797,0 47.0806335,0.783735461 48.7221654,2.31229453 L48.9356909,3.92121503 L49.4342077,4.54803422 L49.6477332,5.45104297 L50.5013995,11.0192444 L50.356725,12.2741517 L50.5013995,13.4106315 L50.7166681,14.9806402 L50.7166681,15.920446 L51.500176,18.3575123 L52,20.5881765 L52,21.4899164 L51.4295818,22 C50.7872622,21.9209074 50.4303696,21.803326 50.4303696,21.5677401 Z" id="Imported-Layers"></path>
            </g>
        </g>
    </g>
</svg>